<svg id="Lager_4" data-name="Lager 4" xmlns="http://www.w3.org/2000/svg" viewBox="0 0 762 459"><defs><style>.cls-1{fill:#5092ca;}.cls-2{fill:#619dcf;}.cls-3{fill:#3f88c5;}.cls-4{fill:#3a7cb4;}</style></defs><title>lego</title><path class="cls-1" d="M19,522.3V625.66a3.53,3.53,0,0,0,3.53,3.53H227.28a3.53,3.53,0,0,0,3.53-3.53V522.3a3.53,3.53,0,0,0-3.53-3.53h-20a3.53,3.53,0,0,1-3.53-3.53v-11.9a3.53,3.53,0,0,0-3.53-3.53s-9.41-1.59-25.36-1.59a188.11,188.11,0,0,0-26.17,1.59,3.53,3.53,0,0,0-3.53,3.53v11.9a3.53,3.53,0,0,1-3.53,3.53H108.15a3.53,3.53,0,0,1-3.53-3.53v-11.9a3.53,3.53,0,0,0-3.53-3.53s-9.22-1.59-27.05-1.59-24.48,1.59-24.48,1.59A3.53,3.53,0,0,0,46,503.35v11.9a3.53,3.53,0,0,1-3.53,3.53h-20A3.53,3.53,0,0,0,19,522.3Z" transform="translate(-19 -170.18)"/><path class="cls-2" d="M19,412.52V515.88a3.53,3.53,0,0,0,3.53,3.53H227.28a3.53,3.53,0,0,0,3.53-3.53V412.52a3.53,3.53,0,0,0-3.53-3.53h-20a3.53,3.53,0,0,1-3.53-3.53v-11.9a3.53,3.53,0,0,0-3.53-3.53s-9.41-1.59-25.36-1.59A188.11,188.11,0,0,0,148.71,390a3.53,3.53,0,0,0-3.53,3.53v11.9a3.53,3.53,0,0,1-3.53,3.53H108.15a3.53,3.53,0,0,1-3.53-3.53v-11.9A3.53,3.53,0,0,0,101.1,390s-9.22-1.59-27.05-1.59S49.57,390,49.57,390A3.53,3.53,0,0,0,46,393.57v11.9A3.53,3.53,0,0,1,42.51,409h-20A3.53,3.53,0,0,0,19,412.52Z" transform="translate(-19 -170.18)"/><path class="cls-3" d="M294.09,522.3V625.66a3.53,3.53,0,0,0,3.53,3.53H502.38a3.53,3.53,0,0,0,3.53-3.53V522.3a3.53,3.53,0,0,0-3.53-3.53h-20a3.53,3.53,0,0,1-3.53-3.53v-11.9a3.53,3.53,0,0,0-3.53-3.53s-9.41-1.59-25.36-1.59a188.11,188.11,0,0,0-26.17,1.59,3.53,3.53,0,0,0-3.53,3.53v11.9a3.53,3.53,0,0,1-3.53,3.53H383.25a3.53,3.53,0,0,1-3.53-3.53v-11.9a3.53,3.53,0,0,0-3.53-3.53s-9.22-1.59-27.05-1.59-24.48,1.59-24.48,1.59a3.53,3.53,0,0,0-3.53,3.53v11.9a3.53,3.53,0,0,1-3.53,3.53h-20A3.53,3.53,0,0,0,294.09,522.3Z" transform="translate(-19 -170.18)"/><path class="cls-1" d="M294.09,412.52V515.88a3.53,3.53,0,0,0,3.53,3.53H502.38a3.53,3.53,0,0,0,3.53-3.53V412.52a3.53,3.53,0,0,0-3.53-3.53h-20a3.53,3.53,0,0,1-3.53-3.53v-11.9a3.53,3.53,0,0,0-3.53-3.53s-9.41-1.59-25.36-1.59A188.11,188.11,0,0,0,423.81,390a3.53,3.53,0,0,0-3.53,3.53v11.9a3.53,3.53,0,0,1-3.53,3.53H383.25a3.53,3.53,0,0,1-3.53-3.53v-11.9a3.53,3.53,0,0,0-3.53-3.53s-9.22-1.59-27.05-1.59S324.66,390,324.66,390a3.53,3.53,0,0,0-3.53,3.53v11.9a3.53,3.53,0,0,1-3.53,3.53h-20A3.53,3.53,0,0,0,294.09,412.52Z" transform="translate(-19 -170.18)"/><path class="cls-4" d="M569.19,522.3V625.66a3.53,3.53,0,0,0,3.53,3.53H777.47a3.53,3.53,0,0,0,3.53-3.53V522.3a3.53,3.53,0,0,0-3.53-3.53h-20a3.53,3.53,0,0,1-3.53-3.53v-11.9a3.53,3.53,0,0,0-3.53-3.53s-9.41-1.59-25.36-1.59a188.11,188.11,0,0,0-26.17,1.59,3.53,3.53,0,0,0-3.53,3.53v11.9a3.53,3.53,0,0,1-3.53,3.53H658.34a3.53,3.53,0,0,1-3.53-3.53v-11.9a3.53,3.53,0,0,0-3.53-3.53s-9.22-1.59-27.05-1.59-24.48,1.59-24.48,1.59a3.53,3.53,0,0,0-3.53,3.53v11.9a3.53,3.53,0,0,1-3.53,3.53h-20A3.53,3.53,0,0,0,569.19,522.3Z" transform="translate(-19 -170.18)"/><path class="cls-3" d="M569.19,412.52V515.88a3.53,3.53,0,0,0,3.53,3.53H777.47a3.53,3.53,0,0,0,3.53-3.53V412.52a3.53,3.53,0,0,0-3.53-3.53h-20a3.53,3.53,0,0,1-3.53-3.53v-11.9a3.53,3.53,0,0,0-3.53-3.53s-9.41-1.59-25.36-1.59A188.11,188.11,0,0,0,698.9,390a3.53,3.53,0,0,0-3.53,3.53v11.9a3.53,3.53,0,0,1-3.53,3.53H658.34a3.53,3.53,0,0,1-3.53-3.53v-11.9a3.53,3.53,0,0,0-3.53-3.53s-9.22-1.59-27.05-1.59S599.76,390,599.76,390a3.53,3.53,0,0,0-3.53,3.53v11.9A3.53,3.53,0,0,1,592.7,409h-20A3.53,3.53,0,0,0,569.19,412.52Z" transform="translate(-19 -170.18)"/><path class="cls-2" d="M294.09,302.74V406.1a3.53,3.53,0,0,0,3.53,3.53H502.38a3.53,3.53,0,0,0,3.53-3.53V302.74a3.53,3.53,0,0,0-3.53-3.53h-20a3.53,3.53,0,0,1-3.53-3.53v-11.9a3.53,3.53,0,0,0-3.53-3.53s-9.41-1.59-25.36-1.59a188.11,188.11,0,0,0-26.17,1.59,3.53,3.53,0,0,0-3.53,3.53v11.9a3.53,3.53,0,0,1-3.53,3.53H383.25a3.53,3.53,0,0,1-3.53-3.53v-11.9a3.53,3.53,0,0,0-3.53-3.53s-9.22-1.59-27.05-1.59-24.48,1.59-24.48,1.59a3.53,3.53,0,0,0-3.53,3.53v11.9a3.53,3.53,0,0,1-3.53,3.53h-20A3.53,3.53,0,0,0,294.09,302.74Z" transform="translate(-19 -170.18)"/><path class="cls-1" d="M569.19,302.74V406.1a3.53,3.53,0,0,0,3.53,3.53H777.47A3.53,3.53,0,0,0,781,406.1V302.74a3.53,3.53,0,0,0-3.53-3.53h-20a3.53,3.53,0,0,1-3.53-3.53v-11.9a3.53,3.53,0,0,0-3.53-3.53s-9.41-1.59-25.36-1.59a188.11,188.11,0,0,0-26.17,1.59,3.53,3.53,0,0,0-3.53,3.53v11.9a3.53,3.53,0,0,1-3.53,3.53H658.34a3.53,3.53,0,0,1-3.53-3.53v-11.9a3.53,3.53,0,0,0-3.53-3.53s-9.22-1.59-27.05-1.59-24.48,1.59-24.48,1.59a3.53,3.53,0,0,0-3.53,3.53v11.9a3.53,3.53,0,0,1-3.53,3.53h-20A3.53,3.53,0,0,0,569.19,302.74Z" transform="translate(-19 -170.18)"/><path class="cls-2" d="M569.19,194.25V297.61a3.53,3.53,0,0,0,3.53,3.53H777.47a3.53,3.53,0,0,0,3.53-3.53V194.25a3.53,3.53,0,0,0-3.53-3.53h-20A3.53,3.53,0,0,1,754,187.2V175.3a3.53,3.53,0,0,0-3.53-3.53s-9.41-1.59-25.36-1.59a188.11,188.11,0,0,0-26.17,1.59,3.53,3.53,0,0,0-3.53,3.53v11.9a3.53,3.53,0,0,1-3.53,3.53H658.34a3.53,3.53,0,0,1-3.53-3.53V175.3a3.53,3.53,0,0,0-3.53-3.53s-9.22-1.59-27.05-1.59-24.48,1.59-24.48,1.59a3.53,3.53,0,0,0-3.53,3.53v11.9a3.53,3.53,0,0,1-3.53,3.53h-20A3.53,3.53,0,0,0,569.19,194.25Z" transform="translate(-19 -170.18)"/></svg>