<?xml version="1.0" encoding="utf-8"?>
<!-- Generator: Adobe Illustrator 21.0.2, SVG Export Plug-In . SVG Version: 6.00 Build 0)  -->
<svg version="1.1" id="Lager_1" xmlns="http://www.w3.org/2000/svg" xmlns:xlink="http://www.w3.org/1999/xlink" x="0px" y="0px"
	 viewBox="0 0 200 100" style="enable-background:new 0 0 200 100;" xml:space="preserve">
<style type="text/css">
	.st0{fill:#619DCF;}
	.st1{fill:#3F88C5;}
	.st2{fill:#3A7CB4;}
</style>
<path class="st0" d="M3,38.8v28.3c0,0.5,0.4,1,1,1H60c0.5,0,1-0.4,1-1V38.8c0-0.5-0.4-1-1-1h-5.5c-0.5,0-1-0.4-1-1v-3.3
	c0-0.5-0.4-1-1-1c0,0-2.6-0.4-6.9-0.4s-7.2,0.4-7.2,0.4c-0.5,0-1,0.4-1,1v3.3c0,0.5-0.4,1-1,1h-9.2c-0.5,0-1-0.4-1-1v-3.3
	c0-0.5-0.4-1-1-1c0,0-2.5-0.4-7.4-0.4s-6.7,0.4-6.7,0.4c-0.5,0-1,0.4-1,1v3.3c0,0.5-0.4,1-1,1H4C3.4,37.8,3,38.3,3,38.8z"/>
<path class="st1" d="M139,38.8v28.3c0,0.5,0.4,1,1,1H196c0.5,0,1-0.4,1-1V38.8c0-0.5-0.4-1-1-1h-5.5c-0.5,0-1-0.4-1-1v-3.3
	c0-0.5-0.4-1-1-1c0,0-2.6-0.4-6.9-0.4c-4.4,0-7.2,0.4-7.2,0.4c-0.5,0-1,0.4-1,1v3.3c0,0.5-0.4,1-1,1h-9.2c-0.5,0-1-0.4-1-1v-3.3
	c0-0.5-0.4-1-1-1c0,0-2.5-0.4-7.4-0.4s-6.7,0.4-6.7,0.4c-0.5,0-1,0.4-1,1v3.3c0,0.5-0.4,1-1,1H140C139.4,37.8,139,38.3,139,38.8z"/>
<path class="st2" d="M71,38.8v28.3c0,0.5,0.4,1,1,1H128c0.5,0,1-0.4,1-1V38.8c0-0.5-0.4-1-1-1h-5.5c-0.5,0-1-0.4-1-1v-3.3
	c0-0.5-0.4-1-1-1c0,0-2.6-0.4-6.9-0.4c-4.4,0-7.2,0.4-7.2,0.4c-0.5,0-1,0.4-1,1v3.3c0,0.5-0.4,1-1,1h-9.2c-0.5,0-1-0.4-1-1v-3.3
	c0-0.5-0.4-1-1-1c0,0-2.5-0.4-7.4-0.4c-4.9,0-6.7,0.4-6.7,0.4c-0.5,0-1,0.4-1,1v3.3c0,0.5-0.4,1-1,1H72C71.4,37.8,71,38.3,71,38.8z"
	/>
</svg>
